<svg xmlns="http://www.w3.org/2000/svg" version="1.1" xmlns:xlink="http://www.w3.org/1999/xlink" xmlns:svgjs="http://svgjs.dev/svgjs" width="1500" height="424" viewBox="0 0 1500 424"><g transform="matrix(1,0,0,1,-0.9090909090909918,0.12037562130041124)"><svg viewBox="0 0 396 112" data-background-color="#ffffff" preserveAspectRatio="xMidYMid meet" height="424" width="1500" xmlns="http://www.w3.org/2000/svg" xmlns:xlink="http://www.w3.org/1999/xlink"><g id="tight-bounds" transform="matrix(1,0,0,1,0.2400000000000091,-0.031797333928409444)"><svg viewBox="0 0 395.52 112.06359466785683" height="112.06359466785683" width="395.52"><g><svg viewBox="0 0 659.3488185364595 186.81482287924777" height="112.06359466785683" width="395.52"><g transform="matrix(1,0,0,1,263.8288185364595,52.32433112553104)"><svg viewBox="0 0 395.52 82.1661606281857" height="82.1661606281857" width="395.52"><g id="textblocktransform"><svg viewBox="0 0 395.52 82.1661606281857" height="82.1661606281857" width="395.52" id="textblock"><g><svg viewBox="0 0 395.52 82.1661606281857" height="82.1661606281857" width="395.52"><g transform="matrix(1,0,0,1,0,0)"><svg width="395.52" viewBox="0.66 -36.18 177.21 36.81" height="82.1661606281857" data-palette-color="#aaaaaa"><path d="M26.25-12.99L26.25-12.99Q26.25-9.64 25.09-7.14 23.93-4.64 21.91-2.98 19.9-1.32 17.2-0.49 14.5 0.34 11.4 0.34L11.4 0.34Q10.21 0.34 8.78 0.02 7.35-0.29 5.88-0.77 4.42-1.25 3.06-1.79 1.71-2.34 0.66-2.83L0.66-2.83 1.73-12.89Q3.81-11.65 6.34-11 8.86-10.35 11.3-10.35L11.3-10.35Q11.77-10.35 12.43-10.39 13.09-10.42 13.68-10.61 14.28-10.79 14.7-11.16 15.11-11.52 15.11-12.21L15.11-12.21Q15.11-12.67 14.82-13 14.53-13.33 14.06-13.54 13.6-13.75 13.01-13.85 12.43-13.96 11.87-14.01 11.3-14.06 10.82-14.06 10.33-14.06 10.03-14.06L10.03-14.06Q7.93-14.06 6.21-14.79 4.49-15.53 3.26-16.83 2.03-18.14 1.34-19.93 0.66-21.73 0.66-23.83L0.66-23.83Q0.66-26.71 1.82-28.99 2.98-31.27 4.92-32.87 6.86-34.47 9.38-35.33 11.89-36.18 14.58-36.18L14.58-36.18Q15.77-36.18 17.04-36.1 18.31-36.01 19.57-35.79 20.83-35.57 22.02-35.23 23.22-34.89 24.29-34.38L24.29-34.38 23.36-24.46Q21.7-25.02 19.89-25.4 18.07-25.78 16.33-25.78L16.33-25.78Q16.02-25.78 15.52-25.77 15.01-25.76 14.47-25.7 13.92-25.63 13.35-25.51 12.79-25.39 12.35-25.18 11.91-24.98 11.65-24.63 11.38-24.29 11.4-23.83L11.4-23.83Q11.43-23.29 11.8-22.96 12.18-22.63 12.78-22.45 13.38-22.27 14.1-22.19 14.82-22.12 15.53-22.11 16.24-22.09 16.85-22.11 17.46-22.12 17.85-22.07L17.85-22.07Q19.8-21.95 21.36-21.24 22.92-20.53 24.01-19.36 25.1-18.19 25.67-16.56 26.25-14.94 26.25-12.99ZM56.22-22.51L56.22-22.51Q56.22-20.14 55.52-18.31 54.81-16.48 53.57-15.1 52.34-13.72 50.68-12.78 49.02-11.84 47.13-11.24 45.24-10.64 43.21-10.36 41.18-10.08 39.23-10.06L39.23-10.06 39.23 0.34 27.85 0.34Q27.85-2.44 27.87-5.08 27.88-7.71 27.89-10.31 27.9-12.92 27.91-15.55 27.93-18.19 27.95-21L27.95-21Q28-23.97 27.98-26.95 27.95-29.93 28.1-32.96L28.1-32.96Q31.22-33.89 34.35-34.35 37.47-34.81 40.79-34.81L40.79-34.81Q42.67-34.81 44.55-34.51 46.43-34.2 48.15-33.54 49.88-32.89 51.35-31.9 52.83-30.91 53.9-29.54 54.98-28.17 55.6-26.42 56.22-24.66 56.22-22.51ZM45.38-21.68L45.38-21.68Q45.38-23.27 44.42-24.16 43.45-25.05 41.92-25.05L41.92-25.05Q41.4-25.05 40.85-24.96 40.31-24.88 39.82-24.76L39.82-24.76 39.52-17.63Q39.87-17.58 40.18-17.58 40.5-17.58 40.84-17.58L40.84-17.58Q41.72-17.58 42.54-17.87 43.36-18.16 43.99-18.71 44.63-19.26 45-20.01 45.38-20.75 45.38-21.68ZM84.86-19.73L84.86-19.73Q84.86-17.6 84.57-15.48L84.57-15.48Q80.39-15.21 76.26-14.61 72.14-14.01 68.01-13.43L68.01-13.43Q68.65-11.67 70-10.62 71.36-9.57 73.24-9.57L73.24-9.57Q74.21-9.57 75.37-9.94 76.53-10.3 77.68-10.85 78.83-11.4 79.88-12.04 80.93-12.67 81.68-13.18L81.68-13.18 80.51-2.1Q79.56-1.37 78.45-0.85 77.34-0.34 76.14-0.02 74.95 0.29 73.73 0.44 72.5 0.59 71.33 0.59L71.33 0.59Q68.92 0.59 66.91-0.07 64.91-0.73 63.29-1.92 61.66-3.1 60.44-4.71 59.22-6.32 58.42-8.23 57.61-10.13 57.2-12.26 56.78-14.38 56.78-16.55L56.78-16.55Q56.78-18.82 57.2-21.09 57.61-23.36 58.45-25.46 59.3-27.56 60.58-29.36 61.86-31.15 63.57-32.5 65.28-33.84 67.44-34.59 69.6-35.35 72.21-35.35L72.21-35.35Q74.38-35.35 76.18-34.75 77.97-34.16 79.38-33.09 80.78-32.03 81.82-30.57 82.86-29.1 83.53-27.36 84.2-25.61 84.53-23.67 84.86-21.73 84.86-19.73ZM75.09-20.46L75.09-21Q75.09-21.68 74.95-22.4 74.8-23.12 74.47-23.71 74.14-24.29 73.6-24.67 73.07-25.05 72.26-25.05L72.26-25.05Q71.28-25.05 70.54-24.52 69.79-24 69.26-23.21 68.72-22.41 68.38-21.48 68.04-20.56 67.87-19.78L67.87-19.78 75.09-20.46ZM109.73-33.35L109.73-33.35 108.85-23.05Q108.15-23.24 107.46-23.32 106.78-23.39 106.07-23.39L106.07-23.39Q104.34-23.39 102.76-22.95 101.19-22.51 99.98-21.61 98.77-20.7 98.05-19.32 97.33-17.94 97.33-16.06L97.33-16.06Q97.33-14.7 97.73-13.68 98.14-12.67 98.88-12 99.63-11.33 100.69-10.99 101.75-10.64 103.04-10.64L103.04-10.64Q103.95-10.64 104.9-10.83 105.85-11.01 106.8-11.33 107.76-11.65 108.64-12.06 109.51-12.48 110.27-12.94L110.27-12.94 109.88-1.46Q108.93-0.98 107.83-0.6 106.73-0.22 105.57 0.06 104.41 0.34 103.25 0.49 102.09 0.63 101.04 0.63L101.04 0.63Q97.58 0.63 94.73-0.66 91.89-1.95 89.85-4.19 87.81-6.42 86.69-9.38 85.56-12.33 85.56-15.67L85.56-15.67Q85.56-19.68 86.7-23.14 87.83-26.61 90.04-29.16 92.25-31.71 95.51-33.17 98.77-34.62 103-34.62L103-34.62Q104.68-34.62 106.41-34.35 108.15-34.08 109.73-33.35ZM111.32-34.38L137.93-34.42 137.69-24.07 130.41-23.78 129.53-1.12 119.23-0.59 118.3-23.24 111.03-22.85 111.32-34.38ZM139.07-33.69L152.06-34.38 150.35-1.12 140.05-0.59 139.07-33.69ZM177.33-33.35L177.33-33.35 176.45-23.05Q175.74-23.24 175.06-23.32 174.37-23.39 173.67-23.39L173.67-23.39Q171.93-23.39 170.36-22.95 168.78-22.51 167.58-21.61 166.37-20.7 165.65-19.32 164.93-17.94 164.93-16.06L164.93-16.06Q164.93-14.7 165.33-13.68 165.73-12.67 166.48-12 167.22-11.33 168.28-10.99 169.35-10.64 170.64-10.64L170.64-10.64Q171.54-10.64 172.49-10.83 173.45-11.01 174.4-11.33 175.35-11.65 176.23-12.06 177.11-12.48 177.87-12.94L177.87-12.94 177.48-1.46Q176.52-0.98 175.42-0.6 174.33-0.22 173.17 0.06 172.01 0.34 170.85 0.49 169.69 0.63 168.64 0.63L168.64 0.63Q165.17 0.63 162.33-0.66 159.48-1.95 157.44-4.19 155.4-6.42 154.28-9.38 153.16-12.33 153.16-15.67L153.16-15.67Q153.16-19.68 154.29-23.14 155.43-26.61 157.64-29.16 159.85-31.71 163.11-33.17 166.37-34.62 170.59-34.62L170.59-34.62Q172.28-34.62 174.01-34.35 175.74-34.08 177.33-33.35Z" opacity="1" transform="matrix(1,0,0,1,0,0)" fill="#aaaaaa" class="wordmark-text-0" data-fill-palette-color="primary" id="text-0"></path></svg></g></svg></g></svg></g></svg></g><g><svg viewBox="0 0 244.43135999999996 186.81482287924777" height="186.81482287924777" width="244.43135999999996"><g><svg xmlns="http://www.w3.org/2000/svg" xmlns:xlink="http://www.w3.org/1999/xlink" version="1.1" x="0" y="0" viewBox="-562.2000000000002 383.3 46.31789924717589 35.400000000000034" style="enable-background:new -589 351 100 100;" xml:space="preserve" height="186.81482287924777" width="244.43135999999996" class="icon-icon-0" data-fill-palette-color="accent" id="icon-0"><path d="M-519.2 402v-3.3c1.8-0.6 3.1-2.3 3.1-4.4 0-0.6-0.1-1.2-0.4-1.9-3.6-7.1-3.7-7.2-3.7-7.3-0.8-1.1-2.1-1.8-3.7-1.8h-30.5c-1.5 0-2.9 0.7-3.7 1.8 0 0.1-0.1 0.2-3.7 7.3-0.2 0.6-0.4 1.2-0.4 1.8 0 2.6 2.1 4.6 4.6 4.6h7.1v5.5c0 2.6 2.1 4.6 4.6 4.6h13.4c2.6 0 4.6-2.1 4.6-4.6v-5.5h6.2v3c-2 0.5-3.4 2.3-3.4 4.5v7.8c0 0.7 0.5 1.2 1.2 1.2s1.2-0.5 1.2-1.2v-3.8c0.3 0.2 0.7 0.3 1 0.4v6.8c0 0.7 0.5 1.2 1.2 1.2s1.2-0.5 1.2-1.2v-6.8c0.4-0.1 0.7-0.2 1-0.4v3.8c0 0.7 0.5 1.2 1.2 1.2s1.2-0.5 1.2-1.2v-7.8C-515.7 404.4-517.2 402.6-519.2 402zM-530.1 404.5c0 1.2-1 2.2-2.2 2.2h-13.4c-1.2 0-2.2-1-2.2-2.2v-5h17.8L-530.1 404.5-530.1 404.5zM-557.4 396.6c-1.2 0-2.2-1-2.2-2.2 0-0.3 0.1-0.6 0.1-0.8 0 0 3.4-6.7 3.5-7 0.3-0.5 0.9-0.7 1.7-0.7h30.5c0.7 0 1.4 0.3 1.6 0.7 0.1 0.1 0.3 0.6 0.6 1.2 0.3 0.5 0.6 1.2 1 1.9h-1-17.5c-0.7 0-1.2 0.5-1.2 1.2s0.5 1.2 1.2 1.2h17.5 2.2c0.1 0.2 0.2 0.3 0.2 0.5 0.3 0.6 0.5 1.1 0.5 1.1 0.1 0.3 0.2 0.6 0.2 0.9 0 0.6-0.3 1.2-0.7 1.6s-0.9 0.6-1.5 0.6h-0.9-35.8V396.6zM-520.4 408.7c-1.2 0-2.2-1-2.2-2.2s1-2.2 2.2-2.2 2.2 1 2.2 2.2C-518.1 407.7-519.1 408.7-520.4 408.7z" fill="#f3a83c" data-fill-palette-color="accent"></path></svg></g></svg></g></svg></g><defs></defs></svg><rect width="395.52" height="112.06359466785683" fill="none" stroke="none" visibility="hidden"></rect></g></svg></g></svg>